<mxfile host="app.diagrams.net" modified="2024-06-25T06:46:03.352Z" agent="Mozilla/5.0 (Windows NT 10.0; Win64; x64) AppleWebKit/537.36 (KHTML, like Gecko) Chrome/124.0.0.0 YaBrowser/24.6.0.0 Safari/537.36" etag="aKK12IfXAfjHguxi4pVl" version="24.6.2" type="github" pages="2">
  <diagram name="Page-1" id="YnxyAtIBWjg8Swuv8Vx-">
    <mxGraphModel dx="2369" dy="1020" grid="1" gridSize="10" guides="1" tooltips="1" connect="1" arrows="1" fold="1" page="1" pageScale="1" pageWidth="827" pageHeight="1169" math="0" shadow="0">
      <root>
        <mxCell id="0" />
        <mxCell id="1" parent="0" />
        <mxCell id="MJ93Mp_es6rQtfnlEJ-h-4" style="edgeStyle=none;curved=1;rounded=0;orthogonalLoop=1;jettySize=auto;html=1;exitX=0.5;exitY=1;exitDx=0;exitDy=0;entryX=0.5;entryY=0;entryDx=0;entryDy=0;fontSize=12;startSize=8;endSize=8;" parent="1" source="MJ93Mp_es6rQtfnlEJ-h-1" target="MJ93Mp_es6rQtfnlEJ-h-2" edge="1">
          <mxGeometry relative="1" as="geometry" />
        </mxCell>
        <mxCell id="MJ93Mp_es6rQtfnlEJ-h-5" style="edgeStyle=none;curved=1;rounded=0;orthogonalLoop=1;jettySize=auto;html=1;exitX=0.5;exitY=1;exitDx=0;exitDy=0;entryX=0.5;entryY=0;entryDx=0;entryDy=0;fontSize=12;startSize=8;endSize=8;" parent="1" source="MJ93Mp_es6rQtfnlEJ-h-1" target="MJ93Mp_es6rQtfnlEJ-h-3" edge="1">
          <mxGeometry relative="1" as="geometry" />
        </mxCell>
        <mxCell id="MJ93Mp_es6rQtfnlEJ-h-1" value="Пользователь открыл приложение" style="rounded=0;whiteSpace=wrap;html=1;" parent="1" vertex="1">
          <mxGeometry x="400" y="40" width="120" height="90" as="geometry" />
        </mxCell>
        <mxCell id="MJ93Mp_es6rQtfnlEJ-h-12" style="edgeStyle=none;curved=1;rounded=0;orthogonalLoop=1;jettySize=auto;html=1;exitX=0.5;exitY=1;exitDx=0;exitDy=0;entryX=0.5;entryY=0;entryDx=0;entryDy=0;fontSize=12;startSize=8;endSize=8;" parent="1" source="MJ93Mp_es6rQtfnlEJ-h-2" target="MJ93Mp_es6rQtfnlEJ-h-10" edge="1">
          <mxGeometry relative="1" as="geometry" />
        </mxCell>
        <mxCell id="MJ93Mp_es6rQtfnlEJ-h-13" style="edgeStyle=none;curved=1;rounded=0;orthogonalLoop=1;jettySize=auto;html=1;exitX=0.5;exitY=1;exitDx=0;exitDy=0;entryX=0.5;entryY=0;entryDx=0;entryDy=0;fontSize=12;startSize=8;endSize=8;" parent="1" source="MJ93Mp_es6rQtfnlEJ-h-2" target="MJ93Mp_es6rQtfnlEJ-h-11" edge="1">
          <mxGeometry relative="1" as="geometry" />
        </mxCell>
        <mxCell id="MJ93Mp_es6rQtfnlEJ-h-2" value="Страница входа" style="rounded=0;whiteSpace=wrap;html=1;" parent="1" vertex="1">
          <mxGeometry x="200" y="160" width="120" height="80" as="geometry" />
        </mxCell>
        <mxCell id="MJ93Mp_es6rQtfnlEJ-h-8" style="edgeStyle=none;curved=1;rounded=0;orthogonalLoop=1;jettySize=auto;html=1;exitX=0.5;exitY=1;exitDx=0;exitDy=0;entryX=0.5;entryY=0;entryDx=0;entryDy=0;fontSize=12;startSize=8;endSize=8;" parent="1" source="MJ93Mp_es6rQtfnlEJ-h-3" target="MJ93Mp_es6rQtfnlEJ-h-6" edge="1">
          <mxGeometry relative="1" as="geometry" />
        </mxCell>
        <mxCell id="MJ93Mp_es6rQtfnlEJ-h-3" value="Страница регистрации" style="rounded=0;whiteSpace=wrap;html=1;" parent="1" vertex="1">
          <mxGeometry x="700" y="150" width="120" height="80" as="geometry" />
        </mxCell>
        <mxCell id="MJ93Mp_es6rQtfnlEJ-h-6" value="зарегистрироваться как пользователь" style="rounded=0;whiteSpace=wrap;html=1;" parent="1" vertex="1">
          <mxGeometry x="630" y="310" width="120" height="80" as="geometry" />
        </mxCell>
        <mxCell id="MJ93Mp_es6rQtfnlEJ-h-19" style="edgeStyle=none;curved=1;rounded=0;orthogonalLoop=1;jettySize=auto;html=1;exitX=0.5;exitY=1;exitDx=0;exitDy=0;entryX=0.5;entryY=0;entryDx=0;entryDy=0;fontSize=12;startSize=8;endSize=8;" parent="1" source="MJ93Mp_es6rQtfnlEJ-h-7" target="MJ93Mp_es6rQtfnlEJ-h-18" edge="1">
          <mxGeometry relative="1" as="geometry" />
        </mxCell>
        <mxCell id="MJ93Mp_es6rQtfnlEJ-h-7" value="Зарегистрироваться как администратор" style="rounded=0;whiteSpace=wrap;html=1;" parent="1" vertex="1">
          <mxGeometry x="830" y="310" width="140" height="80" as="geometry" />
        </mxCell>
        <mxCell id="MJ93Mp_es6rQtfnlEJ-h-9" style="edgeStyle=none;curved=1;rounded=0;orthogonalLoop=1;jettySize=auto;html=1;exitX=0.5;exitY=1;exitDx=0;exitDy=0;entryX=0.25;entryY=0;entryDx=0;entryDy=0;fontSize=12;startSize=8;endSize=8;" parent="1" source="MJ93Mp_es6rQtfnlEJ-h-3" target="MJ93Mp_es6rQtfnlEJ-h-7" edge="1">
          <mxGeometry relative="1" as="geometry" />
        </mxCell>
        <mxCell id="MJ93Mp_es6rQtfnlEJ-h-25" style="edgeStyle=none;curved=1;rounded=0;orthogonalLoop=1;jettySize=auto;html=1;exitX=0.5;exitY=1;exitDx=0;exitDy=0;entryX=0.25;entryY=0;entryDx=0;entryDy=0;fontSize=12;startSize=8;endSize=8;" parent="1" source="MJ93Mp_es6rQtfnlEJ-h-10" target="MJ93Mp_es6rQtfnlEJ-h-20" edge="1">
          <mxGeometry relative="1" as="geometry" />
        </mxCell>
        <mxCell id="MJ93Mp_es6rQtfnlEJ-h-27" style="edgeStyle=none;curved=1;rounded=0;orthogonalLoop=1;jettySize=auto;html=1;exitX=0.5;exitY=1;exitDx=0;exitDy=0;entryX=0.5;entryY=0;entryDx=0;entryDy=0;fontSize=12;startSize=8;endSize=8;" parent="1" source="MJ93Mp_es6rQtfnlEJ-h-10" target="MJ93Mp_es6rQtfnlEJ-h-24" edge="1">
          <mxGeometry relative="1" as="geometry" />
        </mxCell>
        <mxCell id="MJ93Mp_es6rQtfnlEJ-h-28" style="edgeStyle=none;curved=1;rounded=0;orthogonalLoop=1;jettySize=auto;html=1;exitX=0.5;exitY=1;exitDx=0;exitDy=0;entryX=0.5;entryY=0;entryDx=0;entryDy=0;fontSize=12;startSize=8;endSize=8;" parent="1" source="MJ93Mp_es6rQtfnlEJ-h-10" target="MJ93Mp_es6rQtfnlEJ-h-26" edge="1">
          <mxGeometry relative="1" as="geometry" />
        </mxCell>
        <mxCell id="MJ93Mp_es6rQtfnlEJ-h-10" value="Домашняя страница админа" style="rounded=0;whiteSpace=wrap;html=1;" parent="1" vertex="1">
          <mxGeometry x="40" y="320" width="120" height="80" as="geometry" />
        </mxCell>
        <mxCell id="MJ93Mp_es6rQtfnlEJ-h-16" style="edgeStyle=none;curved=1;rounded=0;orthogonalLoop=1;jettySize=auto;html=1;exitX=0.5;exitY=1;exitDx=0;exitDy=0;entryX=0.5;entryY=0;entryDx=0;entryDy=0;fontSize=12;startSize=8;endSize=8;" parent="1" source="MJ93Mp_es6rQtfnlEJ-h-11" target="MJ93Mp_es6rQtfnlEJ-h-15" edge="1">
          <mxGeometry relative="1" as="geometry" />
        </mxCell>
        <mxCell id="MJ93Mp_es6rQtfnlEJ-h-17" style="edgeStyle=none;curved=1;rounded=0;orthogonalLoop=1;jettySize=auto;html=1;exitX=0.5;exitY=1;exitDx=0;exitDy=0;entryX=0.5;entryY=0;entryDx=0;entryDy=0;fontSize=12;startSize=8;endSize=8;" parent="1" source="MJ93Mp_es6rQtfnlEJ-h-11" target="MJ93Mp_es6rQtfnlEJ-h-14" edge="1">
          <mxGeometry relative="1" as="geometry" />
        </mxCell>
        <mxCell id="MJ93Mp_es6rQtfnlEJ-h-21" style="edgeStyle=none;curved=1;rounded=0;orthogonalLoop=1;jettySize=auto;html=1;exitX=0.5;exitY=1;exitDx=0;exitDy=0;entryX=0.75;entryY=0;entryDx=0;entryDy=0;fontSize=12;startSize=8;endSize=8;" parent="1" source="MJ93Mp_es6rQtfnlEJ-h-11" target="MJ93Mp_es6rQtfnlEJ-h-20" edge="1">
          <mxGeometry relative="1" as="geometry" />
        </mxCell>
        <mxCell id="MJ93Mp_es6rQtfnlEJ-h-23" style="edgeStyle=none;curved=1;rounded=0;orthogonalLoop=1;jettySize=auto;html=1;exitX=0.5;exitY=1;exitDx=0;exitDy=0;entryX=0.5;entryY=0;entryDx=0;entryDy=0;fontSize=12;startSize=8;endSize=8;" parent="1" source="MJ93Mp_es6rQtfnlEJ-h-11" target="MJ93Mp_es6rQtfnlEJ-h-22" edge="1">
          <mxGeometry relative="1" as="geometry" />
        </mxCell>
        <mxCell id="MJ93Mp_es6rQtfnlEJ-h-29" style="edgeStyle=none;curved=1;rounded=0;orthogonalLoop=1;jettySize=auto;html=1;exitX=0.5;exitY=1;exitDx=0;exitDy=0;fontSize=12;startSize=8;endSize=8;entryX=0.5;entryY=0;entryDx=0;entryDy=0;" parent="1" source="MJ93Mp_es6rQtfnlEJ-h-11" target="MJ93Mp_es6rQtfnlEJ-h-30" edge="1">
          <mxGeometry relative="1" as="geometry">
            <mxPoint x="880" y="560" as="targetPoint" />
          </mxGeometry>
        </mxCell>
        <mxCell id="MJ93Mp_es6rQtfnlEJ-h-11" value="Домашняя страница пользователя" style="rounded=0;whiteSpace=wrap;html=1;" parent="1" vertex="1">
          <mxGeometry x="387" y="320" width="120" height="80" as="geometry" />
        </mxCell>
        <mxCell id="MJ93Mp_es6rQtfnlEJ-h-43" style="edgeStyle=none;curved=1;rounded=0;orthogonalLoop=1;jettySize=auto;html=1;exitX=0.5;exitY=1;exitDx=0;exitDy=0;entryX=0.5;entryY=0;entryDx=0;entryDy=0;fontSize=12;startSize=8;endSize=8;" parent="1" source="MJ93Mp_es6rQtfnlEJ-h-14" target="MJ93Mp_es6rQtfnlEJ-h-42" edge="1">
          <mxGeometry relative="1" as="geometry" />
        </mxCell>
        <mxCell id="MJ93Mp_es6rQtfnlEJ-h-14" value="&lt;div&gt;Статистика&lt;/div&gt;&lt;div&gt;последних запросов/ответов для текущего пользователя (дата запроса и его примерные данные, полученный им ответ - метрики/советы)&lt;/div&gt;" style="rounded=0;whiteSpace=wrap;html=1;" parent="1" vertex="1">
          <mxGeometry x="830" y="542.5" width="120" height="200" as="geometry" />
        </mxCell>
        <mxCell id="MJ93Mp_es6rQtfnlEJ-h-15" value="Форма для запроса (форма для загрузки видео и заполнения сопутствующих данных), может быть несколько форм, не только для видео" style="rounded=0;whiteSpace=wrap;html=1;" parent="1" vertex="1">
          <mxGeometry x="660" y="542.5" width="120" height="200" as="geometry" />
        </mxCell>
        <mxCell id="MJ93Mp_es6rQtfnlEJ-h-18" value="Ввести одноразовый пароль для регистрации как админ" style="rounded=0;whiteSpace=wrap;html=1;" parent="1" vertex="1">
          <mxGeometry x="835" y="430" width="130" height="80" as="geometry" />
        </mxCell>
        <mxCell id="MJ93Mp_es6rQtfnlEJ-h-20" value="Профиль пользователя и его настройки" style="rounded=0;whiteSpace=wrap;html=1;" parent="1" vertex="1">
          <mxGeometry x="240" y="542.5" width="120" height="200" as="geometry" />
        </mxCell>
        <mxCell id="MJ93Mp_es6rQtfnlEJ-h-22" value="Страница с техподдержкой и часто задаваемыми вопросами (не обязательно, если успеем)" style="rounded=0;whiteSpace=wrap;html=1;" parent="1" vertex="1">
          <mxGeometry x="387" y="542.5" width="90" height="200" as="geometry" />
        </mxCell>
        <mxCell id="MJ93Mp_es6rQtfnlEJ-h-36" style="edgeStyle=none;curved=1;rounded=0;orthogonalLoop=1;jettySize=auto;html=1;exitX=0.5;exitY=1;exitDx=0;exitDy=0;entryX=0.5;entryY=0;entryDx=0;entryDy=0;fontSize=12;startSize=8;endSize=8;" parent="1" source="MJ93Mp_es6rQtfnlEJ-h-24" target="MJ93Mp_es6rQtfnlEJ-h-35" edge="1">
          <mxGeometry relative="1" as="geometry" />
        </mxCell>
        <mxCell id="MJ93Mp_es6rQtfnlEJ-h-24" value="Страница статистики, запросов" style="rounded=0;whiteSpace=wrap;html=1;" parent="1" vertex="1">
          <mxGeometry x="70" y="542.5" width="120" height="200" as="geometry" />
        </mxCell>
        <mxCell id="MJ93Mp_es6rQtfnlEJ-h-26" value="&lt;div&gt;Страница статистика пользователей, возможность задавать ограничения на пользователя&lt;/div&gt;&lt;div&gt;(количество запросов, баны)&lt;br&gt;&lt;/div&gt;" style="rounded=0;whiteSpace=wrap;html=1;" parent="1" vertex="1">
          <mxGeometry x="-90" y="542.5" width="120" height="200" as="geometry" />
        </mxCell>
        <mxCell id="MJ93Mp_es6rQtfnlEJ-h-39" style="edgeStyle=none;curved=1;rounded=0;orthogonalLoop=1;jettySize=auto;html=1;exitX=0.5;exitY=1;exitDx=0;exitDy=0;entryX=0.25;entryY=0;entryDx=0;entryDy=0;fontSize=12;startSize=8;endSize=8;" parent="1" source="MJ93Mp_es6rQtfnlEJ-h-30" target="MJ93Mp_es6rQtfnlEJ-h-37" edge="1">
          <mxGeometry relative="1" as="geometry" />
        </mxCell>
        <mxCell id="MJ93Mp_es6rQtfnlEJ-h-30" value="Страница заданных запросов, без ответа (сервер их еще обрабатывает) " style="rounded=0;whiteSpace=wrap;html=1;" parent="1" vertex="1">
          <mxGeometry x="507" y="540" width="120" height="205" as="geometry" />
        </mxCell>
        <mxCell id="MJ93Mp_es6rQtfnlEJ-h-32" style="edgeStyle=none;curved=1;rounded=0;orthogonalLoop=1;jettySize=auto;html=1;exitX=0.5;exitY=1;exitDx=0;exitDy=0;fontSize=12;startSize=8;endSize=8;" parent="1" source="MJ93Mp_es6rQtfnlEJ-h-30" target="MJ93Mp_es6rQtfnlEJ-h-30" edge="1">
          <mxGeometry relative="1" as="geometry" />
        </mxCell>
        <mxCell id="MJ93Mp_es6rQtfnlEJ-h-33" value="Админская страница просмотра пользователя" style="rounded=0;whiteSpace=wrap;html=1;" parent="1" vertex="1">
          <mxGeometry x="-90" y="790" width="120" height="210" as="geometry" />
        </mxCell>
        <mxCell id="MJ93Mp_es6rQtfnlEJ-h-34" style="edgeStyle=none;curved=1;rounded=0;orthogonalLoop=1;jettySize=auto;html=1;exitX=0.5;exitY=1;exitDx=0;exitDy=0;fontSize=12;startSize=8;endSize=8;entryX=0.5;entryY=0;entryDx=0;entryDy=0;" parent="1" source="MJ93Mp_es6rQtfnlEJ-h-26" target="MJ93Mp_es6rQtfnlEJ-h-33" edge="1">
          <mxGeometry relative="1" as="geometry">
            <mxPoint x="-80" y="782.5" as="targetPoint" />
          </mxGeometry>
        </mxCell>
        <mxCell id="MJ93Mp_es6rQtfnlEJ-h-35" value="Админская страница просмотра запроса" style="rounded=0;whiteSpace=wrap;html=1;" parent="1" vertex="1">
          <mxGeometry x="70" y="790" width="120" height="210" as="geometry" />
        </mxCell>
        <mxCell id="MJ93Mp_es6rQtfnlEJ-h-37" value="Страница заданного вопроса (возможно отображение номера в очереди и примерного времени обработки запроса)" style="rounded=0;whiteSpace=wrap;html=1;" parent="1" vertex="1">
          <mxGeometry x="580" y="795" width="120" height="200" as="geometry" />
        </mxCell>
        <mxCell id="MJ93Mp_es6rQtfnlEJ-h-41" style="edgeStyle=none;curved=1;rounded=0;orthogonalLoop=1;jettySize=auto;html=1;exitX=0.5;exitY=1;exitDx=0;exitDy=0;entryX=0.608;entryY=-0.015;entryDx=0;entryDy=0;entryPerimeter=0;fontSize=12;startSize=8;endSize=8;" parent="1" source="MJ93Mp_es6rQtfnlEJ-h-15" target="MJ93Mp_es6rQtfnlEJ-h-37" edge="1">
          <mxGeometry relative="1" as="geometry" />
        </mxCell>
        <mxCell id="MJ93Mp_es6rQtfnlEJ-h-42" value="Страница запроса с ответом" style="rounded=0;whiteSpace=wrap;html=1;" parent="1" vertex="1">
          <mxGeometry x="830" y="790" width="120" height="200" as="geometry" />
        </mxCell>
      </root>
    </mxGraphModel>
  </diagram>
  <diagram id="cfKPXecPIeL1LvYe-yLx" name="Страница — 2">
    <mxGraphModel dx="2497" dy="2274" grid="1" gridSize="10" guides="1" tooltips="1" connect="1" arrows="1" fold="1" page="1" pageScale="1" pageWidth="827" pageHeight="1169" math="0" shadow="0">
      <root>
        <mxCell id="0" />
        <mxCell id="1" parent="0" />
        <mxCell id="M0Uh5nnStvN2SjlsfsfK-4" style="edgeStyle=orthogonalEdgeStyle;rounded=0;orthogonalLoop=1;jettySize=auto;html=1;exitX=0.5;exitY=1;exitDx=0;exitDy=0;entryX=0.5;entryY=0;entryDx=0;entryDy=0;" edge="1" parent="1" source="M0Uh5nnStvN2SjlsfsfK-1" target="M0Uh5nnStvN2SjlsfsfK-3">
          <mxGeometry relative="1" as="geometry" />
        </mxCell>
        <mxCell id="M0Uh5nnStvN2SjlsfsfK-1" value="Фронт" style="rounded=0;whiteSpace=wrap;html=1;" vertex="1" parent="1">
          <mxGeometry x="122.5" y="70" width="330" height="90" as="geometry" />
        </mxCell>
        <mxCell id="M0Uh5nnStvN2SjlsfsfK-9" style="edgeStyle=orthogonalEdgeStyle;rounded=0;orthogonalLoop=1;jettySize=auto;html=1;exitX=0.25;exitY=1;exitDx=0;exitDy=0;entryX=0.25;entryY=0;entryDx=0;entryDy=0;" edge="1" parent="1" source="M0Uh5nnStvN2SjlsfsfK-2" target="M0Uh5nnStvN2SjlsfsfK-8">
          <mxGeometry relative="1" as="geometry" />
        </mxCell>
        <mxCell id="M0Uh5nnStvN2SjlsfsfK-14" style="edgeStyle=orthogonalEdgeStyle;rounded=0;orthogonalLoop=1;jettySize=auto;html=1;exitX=1;exitY=0.5;exitDx=0;exitDy=0;entryX=0;entryY=0.5;entryDx=0;entryDy=0;" edge="1" parent="1" source="M0Uh5nnStvN2SjlsfsfK-2" target="M0Uh5nnStvN2SjlsfsfK-13">
          <mxGeometry relative="1" as="geometry" />
        </mxCell>
        <mxCell id="M0Uh5nnStvN2SjlsfsfK-5" style="edgeStyle=orthogonalEdgeStyle;rounded=0;orthogonalLoop=1;jettySize=auto;html=1;exitX=0.5;exitY=1;exitDx=0;exitDy=0;entryX=0.5;entryY=0;entryDx=0;entryDy=0;" edge="1" parent="1" source="M0Uh5nnStvN2SjlsfsfK-3" target="M0Uh5nnStvN2SjlsfsfK-2">
          <mxGeometry relative="1" as="geometry" />
        </mxCell>
        <mxCell id="M0Uh5nnStvN2SjlsfsfK-3" value="Gate way - авторизация, фильтрация запросов" style="rounded=0;whiteSpace=wrap;html=1;" vertex="1" parent="1">
          <mxGeometry x="122.5" y="200" width="330" height="130" as="geometry" />
        </mxCell>
        <mxCell id="M0Uh5nnStvN2SjlsfsfK-12" style="edgeStyle=orthogonalEdgeStyle;rounded=0;orthogonalLoop=1;jettySize=auto;html=1;exitX=0.75;exitY=0;exitDx=0;exitDy=0;entryX=0.75;entryY=1;entryDx=0;entryDy=0;" edge="1" parent="1" source="M0Uh5nnStvN2SjlsfsfK-8" target="M0Uh5nnStvN2SjlsfsfK-2">
          <mxGeometry relative="1" as="geometry" />
        </mxCell>
        <mxCell id="M0Uh5nnStvN2SjlsfsfK-21" style="edgeStyle=orthogonalEdgeStyle;rounded=0;orthogonalLoop=1;jettySize=auto;html=1;exitX=0.25;exitY=1;exitDx=0;exitDy=0;entryX=0.25;entryY=0;entryDx=0;entryDy=0;" edge="1" parent="1" source="M0Uh5nnStvN2SjlsfsfK-8" target="M0Uh5nnStvN2SjlsfsfK-20">
          <mxGeometry relative="1" as="geometry" />
        </mxCell>
        <mxCell id="M0Uh5nnStvN2SjlsfsfK-8" value="брокер" style="rounded=0;whiteSpace=wrap;html=1;" vertex="1" parent="1">
          <mxGeometry x="105" y="620" width="365" height="125" as="geometry" />
        </mxCell>
        <mxCell id="M0Uh5nnStvN2SjlsfsfK-17" value="" style="group" vertex="1" connectable="0" parent="1">
          <mxGeometry x="-40" y="390" width="510" height="195" as="geometry" />
        </mxCell>
        <mxCell id="M0Uh5nnStvN2SjlsfsfK-2" value="сервис обработки запросов с видео - обрабатывает запросы, перенаправляет запросы к нейронке&amp;nbsp;" style="rounded=0;whiteSpace=wrap;html=1;" vertex="1" parent="M0Uh5nnStvN2SjlsfsfK-17">
          <mxGeometry x="145" width="365" height="140" as="geometry" />
        </mxCell>
        <mxCell id="M0Uh5nnStvN2SjlsfsfK-16" value="хранение видосов (монго или облако)" style="rounded=0;whiteSpace=wrap;html=1;" vertex="1" parent="M0Uh5nnStvN2SjlsfsfK-17">
          <mxGeometry y="105" width="170" height="90" as="geometry" />
        </mxCell>
        <mxCell id="M0Uh5nnStvN2SjlsfsfK-24" value="бд" style="shape=cylinder3;whiteSpace=wrap;html=1;boundedLbl=1;backgroundOutline=1;size=15;" vertex="1" parent="M0Uh5nnStvN2SjlsfsfK-17">
          <mxGeometry x="450" y="100" width="60" height="80" as="geometry" />
        </mxCell>
        <mxCell id="M0Uh5nnStvN2SjlsfsfK-18" value="" style="group" vertex="1" connectable="0" parent="1">
          <mxGeometry x="570" y="400" width="250" height="190" as="geometry" />
        </mxCell>
        <mxCell id="M0Uh5nnStvN2SjlsfsfK-13" value="сервис получения данных о погоде" style="rounded=0;whiteSpace=wrap;html=1;" vertex="1" parent="M0Uh5nnStvN2SjlsfsfK-18">
          <mxGeometry x="20" width="230" height="120" as="geometry" />
        </mxCell>
        <mxCell id="M0Uh5nnStvN2SjlsfsfK-15" value="если успеем - кеширование" style="rounded=0;whiteSpace=wrap;html=1;" vertex="1" parent="M0Uh5nnStvN2SjlsfsfK-18">
          <mxGeometry y="80" width="210" height="110" as="geometry" />
        </mxCell>
        <mxCell id="M0Uh5nnStvN2SjlsfsfK-22" style="edgeStyle=orthogonalEdgeStyle;rounded=0;orthogonalLoop=1;jettySize=auto;html=1;exitX=0.75;exitY=0;exitDx=0;exitDy=0;entryX=0.75;entryY=1;entryDx=0;entryDy=0;" edge="1" parent="1" source="M0Uh5nnStvN2SjlsfsfK-20" target="M0Uh5nnStvN2SjlsfsfK-8">
          <mxGeometry relative="1" as="geometry" />
        </mxCell>
        <mxCell id="M0Uh5nnStvN2SjlsfsfK-26" value="" style="group" vertex="1" connectable="0" parent="1">
          <mxGeometry x="105" y="820" width="365" height="170" as="geometry" />
        </mxCell>
        <mxCell id="M0Uh5nnStvN2SjlsfsfK-20" value="нейронка" style="rounded=0;whiteSpace=wrap;html=1;" vertex="1" parent="M0Uh5nnStvN2SjlsfsfK-26">
          <mxGeometry width="365" height="125" as="geometry" />
        </mxCell>
        <mxCell id="M0Uh5nnStvN2SjlsfsfK-25" value="бд" style="shape=cylinder3;whiteSpace=wrap;html=1;boundedLbl=1;backgroundOutline=1;size=15;" vertex="1" parent="M0Uh5nnStvN2SjlsfsfK-26">
          <mxGeometry x="305" y="90" width="60" height="80" as="geometry" />
        </mxCell>
        <object placeholders="1" c4Name="Vlad Plotnikov" c4Type="User" c4Description="Student" label="&lt;font style=&quot;font-size: 16px&quot;&gt;&lt;b&gt;%c4Name%&lt;/b&gt;&lt;/font&gt;&lt;div&gt;[%c4Type%]&lt;/div&gt;&lt;br&gt;&lt;div&gt;&lt;font style=&quot;font-size: 11px&quot;&gt;&lt;font color=&quot;#cccccc&quot;&gt;%c4Description%&lt;/font&gt;&lt;/div&gt;" id="M0Uh5nnStvN2SjlsfsfK-27">
          <mxCell style="html=1;fontSize=11;dashed=0;whiteSpace=wrap;fillColor=#083F75;strokeColor=#06315C;fontColor=#ffffff;shape=mxgraph.c4.person2;align=center;metaEdit=1;points=[[0.5,0,0],[1,0.5,0],[1,0.75,0],[0.75,1,0],[0.5,1,0],[0.25,1,0],[0,0.75,0],[0,0.5,0]];resizable=0;" vertex="1" parent="1">
            <mxGeometry x="180" y="-130" width="200" height="180" as="geometry" />
          </mxCell>
        </object>
      </root>
    </mxGraphModel>
  </diagram>
</mxfile>
